<svg width="24" height="24" viewBox="0 0 24 24" fill="none" xmlns="http://www.w3.org/2000/svg">
<path d="M10.246 18.98L13.81 14.47C13.9567 14.2793 14.1253 14.096 14.316 13.92C14.5067 13.7293 14.668 13.5827 14.8 13.48V13.282C14.6093 13.2967 14.3673 13.3187 14.074 13.348C13.7807 13.3627 13.5093 13.37 13.26 13.37H6V11.61H13.26C13.5093 11.61 13.7807 11.6247 14.074 11.654C14.3673 11.6687 14.6093 11.6907 14.8 11.72V11.522C14.6973 11.434 14.5507 11.2947 14.36 11.104C14.184 10.9133 14.0007 10.708 13.81 10.488L10.246 6H12.556L17.66 12.49L12.578 18.98H10.246Z" fill="currentColor"/>
</svg>
