<svg width="280" height="114" viewBox="0 0 280 114" fill="none" xmlns="http://www.w3.org/2000/svg">
<path d="M0.000162601 108.333C0.000162601 111.279 2.38798 113.666 5.3335 113.666C8.27901 113.666 10.6668 111.279 10.6668 108.333C10.6668 105.387 8.27901 103 5.3335 103C2.38798 103 0.000162601 105.387 0.000162601 108.333ZM186.333 41.333L185.953 40.4082L185.888 40.4349L185.828 40.4704L186.333 41.333ZM268.5 5.33301C268.5 8.27853 270.888 10.6663 273.833 10.6663C276.779 10.6663 279.167 8.27853 279.167 5.33301C279.167 2.38749 276.779 -0.00032568 273.833 -0.00032568C270.888 -0.00032568 268.5 2.38749 268.5 5.33301ZM105.788 88.5636L106.294 89.4262L105.788 88.5636ZM5.3335 108.333L5.4611 109.325L8.30715 108.959L8.17955 107.967L8.05194 106.975L5.20589 107.341L5.3335 108.333ZM13.8716 107.235L13.9993 108.226L19.6914 107.494L19.5638 106.502L19.4361 105.51L13.744 106.243L13.8716 107.235ZM25.2559 105.77L25.3835 106.762L31.0756 106.029L30.948 105.038L30.8204 104.046L25.1282 104.778L25.2559 105.77ZM36.6401 104.305L36.7677 105.297L42.4598 104.565L42.3322 103.573L42.2046 102.581L36.5125 103.313L36.6401 104.305ZM48.0243 102.841L48.1519 103.832L53.844 103.1L53.7164 102.108L53.5888 101.116L47.8967 101.849L48.0243 102.841ZM59.4085 101.376L59.5361 102.368L65.2282 101.636L65.1006 100.644L64.973 99.6518L59.2809 100.384L59.4085 101.376ZM70.7927 99.9114L70.9203 100.903L73.7663 100.537L73.6387 99.5452L73.5111 98.5534L70.6651 98.9195L70.7927 99.9114ZM73.6387 99.5452L73.7663 100.537C74.7205 100.414 75.6719 100.276 76.62 100.121L76.4592 99.1342L76.2984 98.1472C75.3724 98.298 74.4431 98.4335 73.5111 98.5534L73.6387 99.5452ZM82.0507 98.0297L82.2772 99.0037C84.151 98.5678 86.0086 98.0694 87.8469 97.5096L87.5556 96.5529L87.2643 95.5963C85.4687 96.1432 83.6543 96.6299 81.8241 97.0557L82.0507 98.0297ZM92.9492 94.7106L93.304 95.6456C95.1006 94.9638 96.875 94.2216 98.6239 93.42L98.2072 92.511L97.7906 91.6019C96.0824 92.3848 94.3493 93.1097 92.5944 93.7757L92.9492 94.7106ZM103.306 89.9639L103.783 90.843C104.627 90.3852 105.464 89.9129 106.294 89.4262L105.788 88.5636L105.283 87.701C104.472 88.1763 103.654 88.6376 102.829 89.0848L103.306 89.9639ZM105.788 88.5636L106.294 89.4262L108.811 87.9503L108.305 87.0876L107.8 86.225L105.283 87.701L105.788 88.5636ZM113.34 84.1357L113.845 84.9984L118.879 82.0464L118.374 81.1838L117.868 80.3212L112.834 83.2731L113.34 84.1357ZM123.408 78.2319L123.914 79.0945L128.948 76.1426L128.442 75.28L127.936 74.4174L122.902 77.3693L123.408 78.2319ZM133.476 72.3281L133.982 73.1907L139.016 70.2388L138.51 69.3762L138.004 68.5135L132.97 71.4655L133.476 72.3281ZM143.544 66.4243L144.05 67.2869L149.084 64.335L148.578 63.4723L148.072 62.6097L143.038 65.5616L143.544 66.4243ZM153.612 60.5204L154.118 61.3831L159.152 58.4312L158.646 57.5685L158.14 56.7059L153.106 59.6578L153.612 60.5204ZM163.68 54.6166L164.186 55.4792L169.22 52.5273L168.714 51.6647L168.208 50.8021L163.174 53.754L163.68 54.6166ZM173.748 48.7128L174.254 49.5754L179.288 46.6235L178.782 45.7609L178.277 44.8983L173.242 47.8502L173.748 48.7128ZM183.816 42.809L184.322 43.6716L186.839 42.1956L186.333 41.333L185.828 40.4704L183.311 41.9463L183.816 42.809ZM186.333 41.333L186.714 42.2578L189.448 41.1328L189.068 40.208L188.687 39.2832L185.953 40.4082L186.333 41.333ZM194.537 37.958L194.917 38.8828L200.386 36.6328L200.005 35.708L199.625 34.7832L194.156 37.0332L194.537 37.958ZM205.474 33.458L205.855 34.3828L211.323 32.1328L210.943 31.208L210.562 30.2832L205.094 32.5332L205.474 33.458ZM216.412 28.958L216.792 29.8828L222.261 27.6328L221.88 26.708L221.5 25.7832L216.031 28.0332L216.412 28.958ZM227.349 24.458L227.73 25.3828L233.198 23.1328L232.818 22.208L232.437 21.2832L226.969 23.5332L227.349 24.458ZM238.287 19.958L238.667 20.8828L244.136 18.6328L243.755 17.708L243.375 16.7832L237.906 19.0332L238.287 19.958ZM249.224 15.458L249.605 16.3828L255.073 14.1328L254.693 13.208L254.312 12.2832L248.844 14.5332L249.224 15.458ZM260.162 10.958L260.542 11.8828L266.011 9.63279L265.63 8.70801L265.25 7.78322L259.781 10.0332L260.162 10.958ZM271.099 6.45801L271.48 7.38279L274.214 6.2578L273.833 5.33301L273.453 4.40822L270.719 5.53322L271.099 6.45801Z" fill="#CC3B03"/>
</svg>
