<svg width="166" height="41" viewBox="0 0 166 41" fill="none" xmlns="http://www.w3.org/2000/svg">
<g clip-path="url(#clip0_182_578)">
<path d="M35.7446 0H19.0645C11.1664 0 4.75224 6.39468 4.75224 14.2734H9.52393C9.52393 9.01258 13.7871 4.76891 19.0673 4.76891H35.7668C37.0758 4.76891 38.1319 5.82497 38.1319 7.13392C38.1319 7.13392 38.1513 11.5527 38.1513 11.9056C38.1513 12.2196 38.1319 12.5504 38.1124 12.8644V12.9033C37.7595 16.3633 35.5501 19.2591 32.5014 20.6069C33.4797 21.0182 35.3945 22.505 36.1976 24.0474C36.4922 23.8724 36.7256 23.675 37.0202 23.4805C39.8743 21.4268 41.9281 18.3586 42.6506 14.7986V14.7597C42.6896 14.5652 42.7285 14.3679 42.7479 14.1733L42.7674 13.9983C42.7868 13.8232 42.8063 13.6453 42.8452 13.4508C42.8452 13.373 42.8646 13.2757 42.8646 13.1979V13.159C42.8841 13.0033 42.8841 12.8449 42.9035 12.6893V12.3364C42.9035 12.2002 42.923 12.0612 42.923 11.9251V7.13392C42.9008 3.20707 39.6937 0 35.7446 0Z" fill="#EC6626"/>
<path d="M14.2345 18.9673C15.5434 18.9673 16.5995 17.9112 16.5995 16.6023C16.5995 15.2933 15.5434 14.2373 14.2345 14.2373C12.9255 14.2373 11.8695 15.2933 11.8695 16.6023C11.8695 17.9112 12.9255 18.9673 14.2345 18.9673Z" fill="#EC6626"/>
<path d="M7.09779 16.6412H4.73278V21.374H0C0 22.6829 0.528026 23.8585 1.38954 24.7172C2.25106 25.5787 3.42383 26.1067 4.73278 26.1067V30.8395C4.73278 36.0614 8.97645 40.3051 14.1984 40.3051V35.5723C11.5777 35.5723 9.46557 33.4602 9.46557 30.8395V26.1067H14.1984V23.7417C10.2882 23.7417 7.10057 20.5541 7.10057 16.644L7.09779 16.6412Z" fill="#CC3B03"/>
<path d="M64.8027 16.6412H60.07V30.8395C60.07 36.0614 64.3136 40.3051 69.5355 40.3051V35.5723C66.9148 35.5723 64.8027 33.4602 64.8027 30.8395V26.1067H69.5355V21.4323H64.8027V16.6412Z" fill="#CC3B03"/>
<path d="M93.1161 40.3412V30.8757C93.1161 25.6538 97.3597 21.4101 102.582 21.4101V26.1429C99.961 26.1429 97.8489 28.255 97.8489 30.8757V40.3412H93.1161Z" fill="#CC3B03"/>
<path fill-rule="evenodd" clip-rule="evenodd" d="M31.0118 39.2074C29.6417 39.9688 28.0604 40.419 26.3763 40.419C21.135 40.419 16.8718 36.1754 16.8718 30.9146C16.8718 25.6732 21.1155 21.4101 26.3763 21.4101C31.6371 21.4101 35.664 25.4564 35.8613 30.5422V30.5227V40.3968H31.0118V39.2046V39.2074ZM31.0507 30.8562C31.0507 33.4185 28.9775 35.4917 26.4152 35.4917C23.8529 35.4917 21.7797 33.4185 21.7797 30.8562C21.7797 28.2939 23.8529 26.2207 26.4152 26.2207C28.9775 26.2207 31.0507 28.2939 31.0507 30.8562Z" fill="#CC3B03"/>
<path d="M52.9138 40.3996H57.7828L57.7244 30.5255C57.5299 25.462 53.3446 21.4129 48.2394 21.4129C43.137 21.4129 38.9517 25.4592 38.7544 30.5255V40.3996H43.6622V30.5255C43.6622 30.5255 44.0152 26.1651 48.2977 26.1651C51.6604 26.1651 52.9333 29.2944 52.9333 30.5255V40.3996H52.9138Z" fill="#CC3B03"/>
<path fill-rule="evenodd" clip-rule="evenodd" d="M81.2661 40.3996C86.5074 40.3996 90.7705 36.1559 90.7705 30.8951C90.7705 25.6343 86.5269 21.3906 81.2661 21.3906C76.0052 21.3906 71.7616 25.6343 71.7616 30.8951C71.7616 36.1559 76.0247 40.3996 81.2661 40.3996ZM81.3244 35.4917C83.8867 35.4917 85.9599 33.4185 85.9599 30.8562C85.9599 28.2939 83.8867 26.2207 81.3244 26.2207C78.7621 26.2207 76.6889 28.2939 76.6889 30.8562C76.6889 33.4185 78.7621 35.4917 81.3244 35.4917Z" fill="#CC3B03"/>
<path d="M161.834 21.3101H114.718C112.417 21.3101 110.552 23.1752 110.552 25.4759V36.2532C110.552 38.5539 112.417 40.4191 114.718 40.4191H161.834C164.135 40.4191 166 38.5539 166 36.2532V25.4759C166 23.1752 164.135 21.3101 161.834 21.3101Z" fill="#161616"/>
<path d="M145.635 35.8755H145.632L145.633 35.8748L145.635 35.8755Z" fill="#F2F5FA"/>
<path fill-rule="evenodd" clip-rule="evenodd" d="M145.491 27.4047C145.935 27.4048 146.363 27.4855 146.774 27.6467C147.186 27.8078 147.558 28.0552 147.886 28.3887C148.214 28.7221 148.475 29.1388 148.667 29.6418C148.859 30.1447 148.956 30.7393 148.956 31.4228V31.8931H142.861C142.874 32.4946 142.986 33.0226 143.198 33.4795C143.423 33.9658 143.745 34.3413 144.159 34.6081C144.576 34.8748 145.068 35.0082 145.635 35.0083C146.021 35.0083 146.363 34.9468 146.655 34.8273C146.947 34.7078 147.194 34.5437 147.397 34.3409C147.597 34.1353 147.75 33.913 147.853 33.6657L148.753 33.9576C148.628 34.3022 148.425 34.6192 148.141 34.911C147.858 35.2027 147.508 35.4364 147.086 35.6115C146.663 35.7864 146.18 35.8747 145.633 35.8748C144.87 35.8746 144.209 35.6973 143.653 35.3391C143.095 34.9834 142.664 34.4854 142.361 33.8518C142.058 33.2183 141.905 32.4876 141.905 31.6596C141.905 30.8314 142.058 30.1028 142.361 29.4608C142.664 28.819 143.086 28.3162 143.623 27.9521C144.159 27.5881 144.785 27.4047 145.491 27.4047ZM145.493 28.2687C144.974 28.2687 144.518 28.4079 144.123 28.6857C143.729 28.9636 143.42 29.3275 143.198 29.7831C143.006 30.1764 142.895 30.601 142.866 31.0564H147.986C147.986 30.5311 147.881 30.0583 147.669 29.6359C147.458 29.2164 147.163 28.8831 146.791 28.6358C146.416 28.3912 145.982 28.2687 145.493 28.2687Z" fill="#F2F5FA"/>
<path d="M126.546 25.684H121.988L121.551 29.3363H121.604C121.846 29.1334 122.141 28.9692 122.485 28.8414C122.833 28.7136 123.199 28.6494 123.585 28.6494C124.227 28.6494 124.806 28.8053 125.32 29.1138C125.834 29.4222 126.24 29.8472 126.54 30.3889C126.84 30.9309 126.99 31.5538 126.99 32.2569C126.99 32.96 126.84 33.5603 126.54 34.1022C126.24 34.6441 125.828 35.0719 125.303 35.3832C124.778 35.6943 124.181 35.852 123.511 35.8521C122.904 35.8519 122.362 35.7301 121.885 35.4831C121.407 35.2357 121.026 34.8969 120.745 34.4635C120.462 34.03 120.312 33.5353 120.295 32.9769H121.26C121.293 33.5548 121.518 34.0302 121.941 34.4025C122.363 34.7748 122.888 34.9583 123.513 34.9583C124 34.9583 124.433 34.8415 124.814 34.6081C125.195 34.3747 125.492 34.0546 125.706 33.6488C125.92 33.2432 126.029 32.7817 126.029 32.2705C126.026 31.737 125.909 31.2675 125.681 30.8618C125.453 30.456 125.145 30.1364 124.756 29.9057C124.366 29.6751 123.93 29.5581 123.447 29.5581C123.08 29.5553 122.721 29.614 122.371 29.739C122.018 29.8641 121.726 30.0224 121.493 30.2197L120.495 30.0919L121.151 24.7896H126.546V25.684Z" fill="#F2F5FA"/>
<path d="M139.81 35.7055H138.857V28.4159H135.511L135.355 31.6732C135.322 32.3374 135.272 32.9212 135.197 33.427C135.124 33.9327 135.008 34.3523 134.844 34.6885C134.683 35.0248 134.457 35.2805 134.171 35.45C133.885 35.6195 133.51 35.7055 133.049 35.7055H132.712V34.8111H132.968C133.26 34.8111 133.496 34.758 133.674 34.6496C133.854 34.5412 133.994 34.358 134.091 34.0996C134.191 33.8411 134.266 33.4853 134.316 33.0378C134.366 32.5904 134.405 32.0287 134.433 31.3534L134.608 27.5215H139.81V35.7055Z" fill="#F2F5FA"/>
<path d="M156.932 28.4133H154.225V35.7029H153.277V28.4133H150.537V27.5182H156.932V28.4133Z" fill="#F2F5FA"/>
</g>
<defs>
<clipPath id="clip0_182_578">
<rect width="166" height="40.419" fill="white"/>
</clipPath>
</defs>
</svg>
