<svg width="54" height="54" viewBox="0 0 54 54" fill="none" xmlns="http://www.w3.org/2000/svg">
<path d="M54 27C54 40.8472 43.5791 52.2532 30.1535 53.8158C29.1189 53.9398 28.0665 54 27 54C12.0898 54 0 41.9102 0 27C0 12.0898 12.0898 0 27 0C41.9102 0 53.263 11.3669 53.9646 25.6465C53.9894 26.0965 54 26.5465 54 27Z" fill="#CC3B03"/>
<path d="M54.0002 26.9997C54.0002 40.8469 43.5793 52.2528 30.1537 53.8154L16.2002 39.8619L16.0726 34.6639L11.8525 30.4438L15.2754 28.9272L16.1966 24.2961L14.3966 22.4961L20.3671 15.9162L19.3927 15.0339L21.7703 14.3713L22.5321 13.5316L23.0777 14.0064L26.9966 12.915L41.8502 13.5316L53.9612 25.6426C53.986 26.0926 53.9966 26.5426 53.9966 26.9961L54.0002 26.9997Z" fill="url(#paint0_linear_461_116)"/>
<path d="M37.7999 11.6992H25.1999C19.233 11.6992 14.3999 16.5323 14.3999 22.4992H17.9999C17.9999 18.5201 21.2208 15.2992 25.1999 15.2992C25.2991 15.2992 25.4054 15.3028 25.5046 15.3063C25.5436 15.3063 25.579 15.3098 25.6216 15.3134H37.7999C38.7849 15.3134 39.5857 16.1142 39.5857 17.0992C39.5857 17.0992 39.5999 20.4476 39.5999 20.7134C39.5999 20.9543 39.5857 21.1953 39.5645 21.4327C39.5645 21.4433 39.5645 21.4504 39.5609 21.461C39.1853 25.0858 36.1275 27.9134 32.3999 27.9134H23.3999V31.5134H32.3999C34.7562 31.5134 36.9389 30.7551 38.7141 29.4724C38.7141 29.476 38.7176 29.4795 38.7176 29.4795C40.8684 27.9276 42.4204 25.6032 42.9731 22.9102C42.9767 22.8996 42.9767 22.8925 42.9802 22.8819C43.0086 22.7331 43.0369 22.5843 43.0582 22.4319C43.0653 22.3858 43.0723 22.3398 43.0794 22.2902C43.1007 22.152 43.1149 22.0173 43.1326 21.8756C43.1397 21.8118 43.1432 21.7445 43.1503 21.6807C43.1609 21.5496 43.1716 21.4256 43.1786 21.2945C43.1822 21.2095 43.1857 21.1173 43.1857 21.0323C43.1893 20.9331 43.1964 20.8268 43.1964 20.7276V17.0992C43.1964 14.1193 40.7763 11.6992 37.7964 11.6992H37.7999Z" fill="white"/>
<path d="M21.6003 26.1147C22.6031 26.1147 23.4145 25.3033 23.4145 24.3005C23.4145 23.2977 22.6031 22.4863 21.6003 22.4863C20.5975 22.4863 19.7861 23.2977 19.7861 24.3005C19.7861 25.3033 20.5975 26.1147 21.6003 26.1147Z" fill="white"/>
<path d="M16.1998 24.2998H14.3998V27.8998H10.7998C10.7998 28.8919 11.2037 29.7919 11.8557 30.4439C12.5077 31.0959 13.4077 31.4998 14.3998 31.4998V35.0998C14.3998 39.0789 17.6207 42.2998 21.5998 42.2998V38.6998C19.6085 38.6998 17.9998 37.0876 17.9998 35.0998V31.4998H21.5998V29.6998C18.6199 29.6998 16.1998 27.2797 16.1998 24.2998Z" fill="white"/>
<defs>
<linearGradient id="paint0_linear_461_116" x1="47.7321" y1="45.4072" x2="18.8966" y2="16.5717" gradientUnits="userSpaceOnUse">
<stop stop-color="#CC3B03" stop-opacity="0"/>
<stop offset="1" stop-color="#820000"/>
</linearGradient>
</defs>
</svg>
