<svg width="400" height="78" viewBox="0 0 400 78" fill="none" xmlns="http://www.w3.org/2000/svg">
<path d="M41.3679 6.10352e-05H45.1721C49.7528 0.371211 54.6655 0.644685 58.587 3.30128C60.8188 4.75655 61.9566 7.73059 61.0043 10.2553C59.7493 13.7373 56.0769 16.6576 52.2434 15.9592C50.08 15.3537 48.2731 13.9472 46.559 12.5554C43.7706 10.2749 41.0798 7.77942 37.7688 6.25578C35.1708 4.96654 32.1186 5.03979 29.3448 5.64046C24.3979 6.82225 20.4911 10.5776 17.9859 14.8653C14.8946 20.2958 13.288 26.5759 13.4345 32.8219C13.4247 40.3668 15.5441 47.9899 19.8367 54.231C24.1732 60.5404 30.8782 65.2921 38.4134 66.8499C43.7511 68.0659 49.5282 67.7778 54.5435 65.4972C56.7655 64.5205 58.8409 63.2362 60.8139 61.8297C61.8638 62.4451 62.9333 63.0213 64.0516 63.4999C59.0363 69.1843 52.5364 73.6429 45.2453 75.8404C37.5929 78.1308 29.125 77.9989 21.6924 74.9614C13.581 71.6992 7.04692 65.0333 3.50145 57.0976C1.34296 52.4779 0.322306 47.4088 0 42.3349V38.9262C0.332082 34.2039 1.299 29.4962 3.23774 25.1598C6.62687 17.3657 12.6238 10.817 19.8952 6.45612C26.3512 2.50539 33.8277 0.390739 41.3679 6.10352e-05Z" fill="#1D1D1B"/>
<path d="M120.773 0H120.817C121.437 0.214879 122.043 0.444397 122.658 0.664152C122.189 4.73696 121.813 8.82442 121.325 12.8972C128.338 7.79891 135.707 2.61754 144.326 0.737412C145.972 0.351622 147.652 0.185575 149.327 1.25017e-05H152.379C155.587 0.273487 158.869 0.752064 161.745 2.28547C165.149 3.94584 167.811 6.91499 169.32 10.3578C171.522 15.2267 171.893 20.6668 171.932 25.9361C171.932 36.4648 171.937 46.9886 171.932 57.5174C171.913 59.715 171.962 61.9223 172.172 64.1101C172.46 65.8975 172.684 67.8215 173.861 69.2768C174.95 70.693 176.645 71.4744 178.325 71.9334C180.513 72.5243 182.739 72.9785 184.991 73.208C185.035 74.0528 185.044 74.8977 185.044 75.7425H145.928C145.952 74.9123 145.815 74.048 146.035 73.2324C149.39 72.6513 153.033 72.2948 155.875 70.2438C158.566 68.1243 158.703 64.4227 158.952 61.2875C159.113 53.8841 159.011 46.471 159.04 39.0629C158.996 34.0524 159.24 29.0029 158.346 24.0462C157.663 20.2762 156.334 16.428 153.546 13.6786C149.864 9.82556 144.243 8.62911 139.091 8.77073C136.425 8.66818 133.748 9.08327 131.229 9.95741C127.849 11.1881 124.865 13.3026 122.243 15.7297C121.872 15.9983 122.033 16.4915 121.989 16.8724C122.018 31.5619 121.974 46.2514 122.009 60.9457C122.17 63.4216 122.223 66.0001 123.293 68.2856C124.206 70.1803 126.169 71.284 128.113 71.8554C130.389 72.4951 132.718 72.9639 135.072 73.2178C135.082 74.0578 135.082 74.9027 135.082 75.7426C122.052 75.7426 109.014 75.7426 95.9797 75.7475C96.009 74.9027 96.0139 74.0578 96.0334 73.213C98.3775 72.959 100.702 72.4707 102.963 71.7772C105.087 71.1033 107.119 69.7311 107.939 67.5775C109.233 63.9442 108.96 60.0276 109.116 56.238V22.8107C109.072 20.5985 109.097 18.2983 108.11 16.2619C106.552 13.1658 103.622 11.0904 100.912 9.06859C100.907 8.50699 100.902 7.95028 100.892 7.39357C107.51 4.903 114.161 2.50521 120.773 0Z" fill="#1D1D1B"/>
<path d="M215.805 1.25017e-05H219.229C221.338 0.224655 223.458 0.439522 225.504 1.01089C231.017 2.39291 236.023 5.82111 239.109 10.6118C241.824 14.7432 243.084 19.6804 243.319 24.5834C227.14 24.559 210.961 24.5981 194.787 24.5639C194.43 27.2937 194.284 30.0529 194.103 32.8023C193.366 40.6549 195.51 48.8006 200.232 55.1491C204.422 60.8871 210.844 64.9258 217.832 66.2003C222.427 67.0061 227.281 66.9768 231.706 65.3604C236.472 63.6805 240.35 60.1497 243.319 56.1404C244.168 56.7557 245.018 57.3759 245.858 58.0156C241.414 65.5069 234.768 71.8456 226.627 75.1273C215.737 79.5713 202.581 77.3737 193.483 69.9997C188.56 66.0978 184.839 60.7797 182.564 54.9439C180.019 48.5612 179.336 41.5192 180.166 34.7263C181.411 23.4601 187.369 12.5602 196.853 6.17759C202.41 2.3343 209.095 0.376051 215.805 1.25017e-05ZM209.569 3.96538C204.857 4.87371 201.116 8.43863 198.747 12.4577C197.151 15.2657 195.778 18.2984 195.314 21.5117C199.006 21.1161 202.723 21.2822 206.419 20.9794C213.437 20.7255 220.45 20.4324 227.462 20.0857C226.329 15.1632 224.376 10.1332 220.474 6.73918C217.544 4.15095 213.383 3.09613 209.569 3.96538Z" fill="#1D1D1B"/>
<path d="M375.187 6.25084e-05H378.039C384.055 0.39074 390.174 2.0267 395.116 5.56234C395.307 10.5044 395.414 15.4611 395.678 20.4032C394.442 20.662 393.192 20.8623 391.957 21.1211C390.433 16.1253 388.582 10.9195 384.715 7.22758C380.608 3.31105 373.492 2.81782 369.117 6.54389C366.362 8.92214 365.137 12.6971 365.356 16.2669C365.327 20.0809 367.696 23.426 370.504 25.8043C375.177 29.7013 380.822 32.1284 386.033 35.2001C390.257 37.6907 394.511 40.5231 397.255 44.6935C399.614 48.2389 400.4 52.678 399.814 56.868C399.282 61.7759 396.806 66.381 393.178 69.7018C387.801 74.7024 380.422 77.1588 373.165 77.4079C365.645 77.5886 357.953 75.6645 351.776 71.2693C351.38 66.8449 351.19 62.4059 350.77 57.9814C350.555 56.2185 350.691 54.4214 350.34 52.6682C351.663 52.3947 352.992 52.0871 354.349 52.0236C355.516 57.8496 357.953 63.5925 362.065 67.9632C365.181 71.1912 369.615 73.1641 374.127 73.0713C377.492 73.1592 380.905 71.8896 383.303 69.5113C387.977 64.8671 388.46 56.5798 384.182 51.5255C381.75 48.5515 378.376 46.5492 375.031 44.757C369.737 41.8953 364.053 39.5708 359.423 35.6396C356.337 33.0904 353.939 29.628 353.006 25.7066C351.99 21.2919 352.244 16.472 354.261 12.3649C356.151 8.43375 359.462 5.32298 363.281 3.28169C366.934 1.28924 371.051 0.307716 375.187 6.25084e-05Z" fill="#1D1D1B"/>
<path d="M235.422 1.64091C247.215 1.66045 259.014 1.66045 270.812 1.64091C270.797 2.47598 270.797 3.31106 270.807 4.14613C268.61 4.28775 266.334 4.37565 264.273 5.24979C262.94 5.7235 261.768 6.76367 261.402 8.16522C261.123 9.76211 261.348 11.4127 261.861 12.9413C262.989 16.4476 264.439 19.8367 265.758 23.2698C270.377 35.1269 275.08 46.9448 279.656 58.8166C284.911 46.6323 290.014 34.3699 295.215 22.1613C295.566 21.3995 295.044 20.6425 294.809 19.9344C293.164 16.0325 292.04 11.8132 289.501 8.36059C287.352 5.44027 283.543 4.73705 280.193 4.14616C280.203 3.31108 280.203 2.4809 280.208 1.64582C292.143 1.64582 304.088 1.68489 316.028 1.62628C316.028 2.46136 316.028 3.30131 316.033 4.14127C313.454 4.33661 310.798 4.51242 308.42 5.63073C306.891 6.36326 305.68 7.92108 305.763 9.67425C305.831 11.989 306.779 14.1622 307.57 16.3011C312.864 30.4778 318.294 44.6008 323.529 58.7922C325.707 54.3336 327.626 49.7529 329.663 45.2259C333.042 37.4758 336.373 29.6915 339.205 21.7217C340.338 18.2838 341.52 14.8263 341.993 11.2271C342.301 9.29329 341.735 7.06644 340.045 5.9237C337.857 4.52702 335.186 4.52702 332.71 4.15588C332.72 3.31592 332.715 2.48086 332.71 1.6409C342.145 1.67508 351.58 1.63113 361.014 1.66044C361.005 2.48086 361.005 3.30128 361.01 4.1217C358.167 4.41472 355.267 5.17165 353.015 7.01761C349.519 9.7963 347.751 14.0254 345.9 17.9566C336.968 37.7835 328.139 57.6592 319.188 77.4714C318.475 77.4519 317.766 77.4617 317.058 77.5105H316.922C310.28 60.5062 303.595 43.5167 296.978 26.5027C289.901 43.4727 282.986 60.516 275.964 77.5105H275.837C275.056 77.4519 274.274 77.4421 273.493 77.4519C265.123 56.6874 256.772 35.918 248.358 15.1682C247.122 12.2967 245.852 9.28847 243.489 7.13975C241.301 5.12288 238.303 4.35129 235.407 4.12664C235.421 3.29646 235.422 2.4711 235.422 1.64091Z" fill="#1D1D1B"/>
<ellipse cx="74.923" cy="38.6981" rx="20.9499" ry="20.9552" fill="white"/>
<path d="M61.2093 22.801C64.5056 20.0955 68.5442 18.2447 72.8173 17.8638C79.0144 17.1801 85.4557 19.5046 89.8264 23.9437C93.6893 27.8261 95.9503 33.2662 95.8722 38.7553C95.921 43.4825 94.2411 48.1951 91.2671 51.8626C88.1075 55.8084 83.4682 58.5627 78.4772 59.3685C73.5303 60.1889 68.2756 59.2757 64.0075 56.6093C58.6113 53.352 54.8364 47.5358 54.1527 41.2704C53.3616 35.4444 55.271 29.3987 59.085 24.9547C57.9374 26.786 57.2927 28.9298 57.5858 31.103C57.9911 34.8877 61.1946 38.1645 64.9647 38.6626C69.4233 39.4391 74.0089 36.1671 74.8146 31.7427C75.1711 29.7503 74.9221 27.6064 73.9014 25.8337C72.368 22.9964 69.1693 21.1163 65.9267 21.3165C64.2273 21.2921 62.6694 22.0196 61.2093 22.801Z" fill="url(#paint0_radial_2115_3)"/>
<path d="M61.2093 22.801C64.5056 20.0955 68.5442 18.2447 72.8173 17.8638C79.0144 17.1801 85.4557 19.5046 89.8264 23.9437C93.6893 27.8261 95.9503 33.2662 95.8722 38.7553C95.921 43.4825 94.2411 48.1951 91.2671 51.8626C88.1075 55.8084 83.4682 58.5627 78.4772 59.3685C73.5303 60.1889 68.2756 59.2757 64.0075 56.6093C58.6113 53.352 54.8364 47.5358 54.1527 41.2704C53.3616 35.4444 55.271 29.3987 59.085 24.9547C57.9374 26.786 57.2927 28.9298 57.5858 31.103C57.9911 34.8877 61.1946 38.1645 64.9647 38.6626C69.4233 39.4391 74.0089 36.1671 74.8146 31.7427C75.1711 29.7503 74.9221 27.6064 73.9014 25.8337C72.368 22.9964 69.1693 21.1163 65.9267 21.3165C64.2273 21.2921 62.6694 22.0196 61.2093 22.801Z" fill="url(#paint1_radial_2115_3)"/>
<defs>
<radialGradient id="paint0_radial_2115_3" cx="0" cy="0" r="1" gradientUnits="userSpaceOnUse" gradientTransform="translate(66.5 29) rotate(45) scale(39.598 39.598)">
<stop stop-color="#00AAFF"/>
<stop offset="1" stop-color="#00406C"/>
</radialGradient>
<radialGradient id="paint1_radial_2115_3" cx="0" cy="0" r="1" gradientUnits="userSpaceOnUse" gradientTransform="translate(65.5 29) rotate(45) scale(26.8701 26.86)">
<stop stop-color="white" stop-opacity="0.7"/>
<stop offset="1" stop-color="white" stop-opacity="0"/>
</radialGradient>
</defs>
</svg>
