<svg width="247" height="98" viewBox="0 0 247 98" fill="none" xmlns="http://www.w3.org/2000/svg">
<path d="M155.091 40.3418H143.604V74.9309C143.604 87.6727 153.888 97.9853 166.578 97.9853V86.4656C160.222 86.4656 155.091 81.3018 155.091 74.9384V63.4111H166.578V51.8839H155.091V40.3418Z" fill="#CC3B03"/>
<path d="M195.298 51.8691C182.601 51.8691 172.325 62.1892 172.325 74.9236C172.325 87.6579 182.609 97.978 195.298 97.978C207.988 97.978 218.272 87.6579 218.272 74.9236C218.272 62.1892 207.988 51.8691 195.298 51.8691ZM195.298 86.4583C188.957 86.4583 183.812 81.2945 183.812 74.931C183.812 68.5676 188.957 63.4038 195.298 63.4038C201.639 63.4038 206.785 68.5676 206.785 74.931C206.785 81.2945 201.639 86.4583 195.298 86.4583Z" fill="#CC3B03"/>
<path d="M224.026 74.9382V97.9927H235.513V74.9382C235.513 68.5748 240.651 63.411 247 63.411V51.8838C234.303 51.8838 224.026 62.2039 224.026 74.9382Z" fill="#CC3B03"/>
<path d="M63.1885 51.8691C50.4913 51.8691 40.2148 62.1892 40.2148 74.9236C40.2148 87.6579 50.4988 97.978 63.1885 97.978C67.3837 97.978 71.2968 96.838 74.6753 94.8634V97.978H86.1621V74.9236C86.1621 62.1967 75.8782 51.8691 63.1885 51.8691ZM63.1885 86.4583C56.8473 86.4583 51.7017 81.2945 51.7017 74.931C51.7017 68.5676 56.8473 63.4038 63.1885 63.4038C69.5296 63.4038 74.6753 68.5676 74.6753 74.931C74.6753 81.2945 69.5296 86.4583 63.1885 86.4583Z" fill="#CC3B03"/>
<path d="M114.883 51.876C102.186 51.876 91.9092 62.1961 91.9092 74.9304V97.9849H103.396V74.9304C103.396 68.567 108.534 63.4032 114.883 63.4032C121.231 63.4032 126.37 68.567 126.37 74.9304V97.9849H137.856V74.9304C137.856 62.1886 127.565 51.876 114.883 51.876Z" fill="#CC3B03"/>
<path d="M17.2339 40.3492H11.4868V51.8765H0C0 55.0582 1.28456 57.9419 3.36363 60.0282C5.44269 62.1146 8.31625 63.4037 11.4868 63.4037V74.9309C11.4868 87.6727 21.7708 97.9853 34.4605 97.9853V86.4581C28.1045 86.4581 22.9736 81.2943 22.9736 74.9309V63.4037H34.4605V57.6364C24.9487 57.6364 17.2265 49.887 17.2265 40.3418L17.2339 40.3492Z" fill="#CC3B03"/>
<path d="M34.4679 34.5371C31.2751 34.5371 28.6763 37.1302 28.6763 40.3492C28.6763 43.5681 31.2602 46.1612 34.4679 46.1612C37.6756 46.1612 40.2596 43.5681 40.2596 40.3492C40.2596 37.1302 37.6608 34.5371 34.4679 34.5371Z" fill="#EC6626"/>
<path d="M103.396 17.2946V28.9037C103.396 29.2241 103.374 29.5595 103.374 29.8873C103.359 30.163 103.359 30.4536 103.337 30.7293C103.315 31.1466 103.278 31.5564 103.248 31.9737C103.233 32.1823 103.211 32.391 103.188 32.5996C103.144 33.0392 103.084 33.4863 103.025 33.9259C103.003 34.075 102.98 34.2165 102.958 34.3656C102.877 34.8499 102.795 35.3342 102.691 35.8186C102.691 35.8409 102.676 35.8782 102.676 35.908C100.909 44.5292 95.9562 51.9805 89.0879 56.9506C89.0879 56.9357 89.0731 56.9282 89.0731 56.9133C88.3157 57.4573 87.536 57.9714 86.7415 58.4706C84.3952 55.0803 81.3508 52.2339 77.8016 50.1326C85.3827 46.9509 90.8997 39.7901 91.7684 31.2584C91.7684 31.2211 91.7833 31.1988 91.7833 31.1689C91.8501 30.4089 91.8946 29.6489 91.8946 28.8665C91.8946 28.0245 91.8501 17.302 91.8501 17.302C91.8501 14.1426 89.3032 11.5868 86.1549 11.5868H47.2913C47.1651 11.5719 47.0537 11.5645 46.9201 11.5645C46.6008 11.5496 46.2667 11.5421 45.9399 11.5421C33.2428 11.5421 22.9663 21.8622 22.9663 34.5966H11.4795C11.4869 15.4839 26.9165 0 45.9548 0H86.1624C95.6741 0 103.396 7.74939 103.396 17.2946Z" fill="#EC6626"/>
</svg>
