<svg xmlns="http://www.w3.org/2000/svg" xmlns:xlink="http://www.w3.org/1999/xlink"><defs><filter id="filter0_f_185_626" x="212.861" y="110.278" width="977.95" height="1062.44" filterUnits="userSpaceOnUse" color-interpolation-filters="sRGB"><feFlood flood-opacity="0" result="BackgroundImageFix"/><feBlend in="SourceGraphic" in2="BackgroundImageFix" result="shape"/><feGaussianBlur stdDeviation="64.15" result="effect1_foregroundBlur_185_626"/></filter><filter id="filter1_f_185_626" x="-23.28" y="56.214" width="1223.37" height="1012.54" filterUnits="userSpaceOnUse" color-interpolation-filters="sRGB"><feFlood flood-opacity="0" result="BackgroundImageFix"/><feBlend in="SourceGraphic" in2="BackgroundImageFix" result="shape"/><feGaussianBlur stdDeviation="121.885" result="effect1_foregroundBlur_185_626"/></filter><filter id="filter2_f_185_626" x="370.173" y="401.091" width="675.525" height="755.469" filterUnits="userSpaceOnUse" color-interpolation-filters="sRGB"><feFlood flood-opacity="0" result="BackgroundImageFix"/><feBlend in="SourceGraphic" in2="BackgroundImageFix" result="shape"/><feGaussianBlur stdDeviation="85.533" result="effect1_foregroundBlur_185_626"/></filter><clipPath id="clip0_185_626"><path fill="#fff" d="M0 0h1283v1283H0z"/></clipPath><clipPath id="clip0_182_578"><path fill="#fff" d="M0 0h166v40.419H0z"/></clipPath></defs><symbol id="blob-1" viewBox="0 0 1283 1283"><g clip-path="url(#clip0_185_626)"><g filter="url(#filter0_f_185_626)"><path d="M345.325 419.034c29.756-131.212 225.014-197.357 369.064-176.747 183.187 26.292 354.711 203.16 347.931 412.601-8.8 268.37-305.174 409.842-333.109 387.172-10.939-8.92 17.457-44.942 55.446-168.449C825.9 739.808 846.418 673.032 821.213 640.4c-58.842-76.001-267.181 77.873-400.311-18.427-64.006-46.295-90.796-135.845-75.577-202.939z" fill="#fff" fill-opacity=".8"/></g><g filter="url(#filter1_f_185_626)"><path d="M574.212 313.041c167.21-44.347 371.725 31.929 381.732 113.837 7.975 65.798-110.071 128.135-315.007 236.362-231.032 122.104-362.616 191.532-404.29 149.354-65.669-66.517 73.182-429.553 337.565-499.553z" fill="#CC3B03"/></g><g opacity=".7" filter="url(#filter2_f_185_626)"><path d="M658.333 578.572c-81.599 25.454-117.526 117.526-117.089 184.87.872 127.27 132.797 239.558 215.56 219.778 99.78-24 165.96-249.014 73.889-353.158-37.817-42.908-108.071-71.417-172.506-51.344l.146-.146z" fill="#CC3B03"/></g></g></symbol><symbol id="logo-tantor" viewBox="0 0 166 41"><g clip-path="url(#clip0_182_578)"><path d="M35.745 0h-16.68c-7.9 0-14.314 6.395-14.314 14.273h4.772c0-5.26 4.263-9.504 9.543-9.504h16.7a2.361 2.361 0 012.365 2.365s.02 4.419.02 4.772c0 .314-.02.644-.04.958v.04c-.352 3.46-2.562 6.355-5.61 7.703.978.411 2.892 1.898 3.696 3.44.294-.175.528-.372.822-.567a14.174 14.174 0 005.63-8.681v-.04a6.09 6.09 0 00.098-.586l.02-.175c.019-.175.038-.353.077-.547 0-.078.02-.175.02-.253v-.039c.02-.156.02-.314.038-.47v-.353c0-.136.02-.275.02-.41V7.133C42.901 3.207 39.693 0 35.745 0z" fill="#EC6626"/><path d="M14.235 18.967a2.361 2.361 0 002.364-2.365 2.361 2.361 0 00-2.364-2.365 2.361 2.361 0 00-2.365 2.365 2.361 2.361 0 002.365 2.365z" fill="#EC6626"/><path d="M7.098 16.641H4.733v4.733H0c0 1.309.528 2.485 1.39 3.343a4.697 4.697 0 003.343 1.39v4.733c0 5.221 4.243 9.465 9.465 9.465v-4.733a4.724 4.724 0 01-4.732-4.733v-4.732h4.732v-2.365c-3.91 0-7.097-3.188-7.097-7.098l-.003-.003zm57.705 0H60.07V30.84c0 5.221 4.244 9.465 9.465 9.465v-4.733a4.724 4.724 0 01-4.732-4.733v-4.732h4.733v-4.675h-4.733v-4.79zm28.313 23.7v-9.465c0-5.222 4.244-9.466 9.466-9.466v4.733a4.724 4.724 0 00-4.733 4.733v9.465h-4.733z" fill="#CC3B03"/><path fill-rule="evenodd" clip-rule="evenodd" d="M31.012 39.207a9.527 9.527 0 01-4.636 1.212c-5.241 0-9.504-4.244-9.504-9.504 0-5.242 4.244-9.505 9.504-9.505 5.261 0 9.288 4.046 9.485 9.132v-.02 9.875h-4.85v-1.192.002zm.039-8.35a4.633 4.633 0 01-4.636 4.635 4.633 4.633 0 01-4.635-4.636 4.633 4.633 0 014.635-4.635 4.633 4.633 0 014.636 4.635z" fill="#CC3B03"/><path d="M52.914 40.4h4.869l-.059-9.874c-.194-5.064-4.38-9.113-9.485-9.113-5.102 0-9.287 4.046-9.485 9.113V40.4h4.908v-9.874s.353-4.36 4.636-4.36c3.362 0 4.635 3.128 4.635 4.36V40.4h-.02z" fill="#CC3B03"/><path fill-rule="evenodd" clip-rule="evenodd" d="M81.266 40.4c5.241 0 9.504-4.244 9.504-9.505a9.49 9.49 0 00-9.504-9.504 9.49 9.49 0 00-9.504 9.504c0 5.26 4.263 9.505 9.504 9.505zm.058-4.908a4.633 4.633 0 004.636-4.636 4.633 4.633 0 00-4.636-4.635 4.633 4.633 0 00-4.635 4.635 4.633 4.633 0 004.635 4.636z" fill="#CC3B03"/><path d="M161.834 21.31h-47.116a4.166 4.166 0 00-4.166 4.166v10.777c0 2.3 1.865 4.166 4.166 4.166h47.116A4.166 4.166 0 00166 36.253V25.476c0-2.3-1.865-4.166-4.166-4.166z" fill="#161616"/><path d="M145.635 35.876h-.003l.001-.001h.002z" fill="#F2F5FA"/><path fill-rule="evenodd" clip-rule="evenodd" d="M145.491 27.405c.444 0 .872.08 1.283.242a3.17 3.17 0 011.112.742c.328.333.589.75.781 1.253.192.503.289 1.097.289 1.78v.471h-6.095c.013.602.125 1.13.337 1.587.225.486.547.861.961 1.128.417.267.909.4 1.476.4.386 0 .728-.061 1.02-.18a2.152 2.152 0 001.198-1.162l.9.292a2.664 2.664 0 01-.612.953 3.102 3.102 0 01-1.055.7c-.423.175-.906.264-1.453.264-.763 0-1.424-.178-1.98-.536a3.522 3.522 0 01-1.292-1.487c-.303-.634-.456-1.364-.456-2.192 0-.829.153-1.557.456-2.2.303-.641.725-1.144 1.262-1.508.536-.364 1.162-.547 1.868-.547zm.002.864c-.519 0-.975.139-1.37.417a2.836 2.836 0 00-.925 1.097 3.36 3.36 0 00-.332 1.273h5.12a3.12 3.12 0 00-.317-1.42 2.56 2.56 0 00-.878-1 2.325 2.325 0 00-1.298-.367z" fill="#F2F5FA"/><path d="M126.546 25.684h-4.558l-.437 3.652h.053a3.163 3.163 0 011.981-.687 3.304 3.304 0 012.955 1.74c.3.542.45 1.165.45 1.868 0 .703-.15 1.303-.45 1.845-.3.542-.712.97-1.237 1.281-.525.311-1.122.469-1.792.47-.607-.001-1.149-.123-1.626-.37a2.938 2.938 0 01-1.14-1.02 2.819 2.819 0 01-.45-1.486h.965c.033.578.258 1.053.681 1.426.422.372.947.555 1.572.555.487 0 .92-.116 1.301-.35.381-.233.678-.553.892-.96a2.91 2.91 0 00.323-1.378c-.003-.533-.12-1.003-.348-1.408a2.529 2.529 0 00-.925-.956 2.524 2.524 0 00-1.309-.348 3.104 3.104 0 00-1.076.181 2.776 2.776 0 00-.878.48l-.998-.127.656-5.302h5.395v.894zm13.264 10.022h-.953v-7.29h-3.346l-.156 3.257a18.374 18.374 0 01-.158 1.754c-.073.506-.189.925-.353 1.261a1.723 1.723 0 01-.673.762c-.286.17-.661.255-1.122.255h-.337v-.894h.256c.292 0 .528-.053.706-.161.18-.109.32-.292.417-.55.1-.259.175-.615.225-1.062a25 25 0 00.117-1.685l.175-3.832h5.202v8.184zm17.122-7.293h-2.707v7.29h-.948v-7.29h-2.74v-.895h6.395v.895z" fill="#F2F5FA"/></g></symbol><symbol id="plus" viewBox="0 0 14 14"><path fill="#161616" d="M6 0h2v14H6z"/><path fill="#161616" d="M0 8V6h14v2z"/></symbol></svg>